<?xml version="1.0" encoding="utf-8"?>
<!-- Generator: Adobe Illustrator 16.0.0, SVG Export Plug-In . SVG Version: 6.00 Build 0)  -->
<!DOCTYPE svg PUBLIC "-//W3C//DTD SVG 1.1//EN" "http://www.w3.org/Graphics/SVG/1.1/DTD/svg11.dtd">
<svg version="1.1" id="Layer_1" xmlns="http://www.w3.org/2000/svg" xmlns:xlink="http://www.w3.org/1999/xlink" x="0px" y="0px"
	 width="920px" height="1404px" viewBox="0 0 920 1404" enable-background="new 0 0 920 1404" xml:space="preserve">
<g>
	<g opacity="0.3">
		<g>
			<rect x="57.896" y="287.771" fill="#424142" width="817.663" height="617.202"/>
			<rect x="57.896" y="889.151" fill="#424142" width="817.663" height="71.215"/>
			<rect x="377.024" y="240.295" fill="#424142" width="197.845" height="87.048"/>
			<rect x="440.331" y="26.64" fill="#424142" width="63.312" height="237.393"/>
			<rect x="440.331" y="912.892" fill="#424142" width="63.312" height="466.854"/>
			<polygon fill="#424142" points="218.773,1379.746 155.476,1379.746 297.905,912.892 361.201,912.892 			"/>
			<polygon fill="#424142" points="725.2,1379.746 788.51,1379.746 646.07,912.892 582.761,912.892 			"/>
		</g>
	</g>
	<g>
		<g>
			<rect x="49.381" y="285.771" fill="#E9EAE2" width="817.661" height="617.202"/>
			<rect x="49.381" y="887.151" fill="#424142" width="817.661" height="71.215"/>
			<rect x="368.508" y="238.295" fill="#424142" width="197.844" height="87.048"/>
			<rect x="431.817" y="24.64" fill="#424142" width="63.309" height="237.393"/>
			<rect x="431.817" y="910.892" fill="#424142" width="63.309" height="466.854"/>
			<polygon fill="#424142" points="210.246,1377.746 146.96,1377.746 289.389,910.892 352.675,910.892 			"/>
			<polygon fill="#424142" points="716.674,1377.746 779.983,1377.746 637.555,910.892 574.246,910.892 			"/>
		</g>
	</g>
</g>
</svg>
