<?xml version="1.0" encoding="utf-8"?>
<!-- Generator: Adobe Illustrator 16.0.0, SVG Export Plug-In . SVG Version: 6.00 Build 0)  -->
<!DOCTYPE svg PUBLIC "-//W3C//DTD SVG 1.1//EN" "http://www.w3.org/Graphics/SVG/1.1/DTD/svg11.dtd">
<svg version="1.1" id="Layer_1" xmlns="http://www.w3.org/2000/svg" xmlns:xlink="http://www.w3.org/1999/xlink" x="0px" y="0px"
	 width="174px" height="172px" viewBox="0 0 174 172" enable-background="new 0 0 174 172" xml:space="preserve">
<g>
	<g>
		<g>
			<circle fill="#5AC4BE" cx="89.837" cy="87.078" r="69.212"/>
		</g>
	</g>
	<g opacity="0.3">
		<g>
			<rect x="61.667" y="54.308" fill="#424142" width="57.788" height="43.62"/>
			<rect x="61.667" y="96.811" fill="#424142" width="57.788" height="5.033"/>
			<rect x="84.221" y="50.953" fill="#424142" width="13.982" height="6.151"/>
			<rect x="88.695" y="35.853" fill="#424142" width="4.475" height="16.777"/>
			<rect x="88.695" y="98.488" fill="#424142" width="4.475" height="32.994"/>
			<polygon fill="#424142" points="73.037,131.482 68.563,131.482 78.629,98.488 83.104,98.488 			"/>
			<polygon fill="#424142" points="108.828,131.482 113.303,131.482 103.236,98.488 98.762,98.488 			"/>
		</g>
	</g>
	<g>
		<g>
			<rect x="60.217" y="54.308" fill="#E9EAE2" width="57.788" height="43.62"/>
			<rect x="60.217" y="96.811" fill="#424142" width="57.788" height="5.033"/>
			<rect x="82.771" y="50.953" fill="#424142" width="13.982" height="6.151"/>
			<rect x="87.246" y="35.853" fill="#424142" width="4.475" height="16.777"/>
			<rect x="87.246" y="98.488" fill="#424142" width="4.475" height="32.994"/>
			<polygon fill="#424142" points="71.586,131.482 67.113,131.482 77.18,98.488 81.652,98.488 			"/>
			<polygon fill="#424142" points="107.378,131.482 111.852,131.482 101.786,98.488 97.312,98.488 			"/>
		</g>
	</g>
</g>
</svg>
