<?xml version="1.0" encoding="utf-8"?>
<!-- Generator: Adobe Illustrator 16.0.0, SVG Export Plug-In . SVG Version: 6.00 Build 0)  -->
<!DOCTYPE svg PUBLIC "-//W3C//DTD SVG 1.1//EN" "http://www.w3.org/Graphics/SVG/1.1/DTD/svg11.dtd">
<svg version="1.1" id="Layer_1" xmlns="http://www.w3.org/2000/svg" xmlns:xlink="http://www.w3.org/1999/xlink" x="0px" y="0px"
	 width="174px" height="172px" viewBox="0 0 174 172" enable-background="new 0 0 174 172" xml:space="preserve">
<g>
	<g>
		<g>
			<g>
				<g>
					<circle fill="#5AC4BE" cx="89.56" cy="87.169" r="69.211"/>
				</g>
			</g>
		</g>
	</g>
	<path fill="#BABBB8" d="M56.127,107.009c8.029,15.676,29.084,22.479,48.1,14.029c3.277-1.458,6.365-3.275,9.094-5.395
		c1.726-1.339,3.306-2.799,4.703-4.363c5.835-6.535,8.452-14.912,4.797-24.051c-3.031-7.577-13.1-12.676-20.209-10.226
		c-10.708,3.693-14.443,0.93-16.902-5.916c-1.492-4.146-11.622-9.876-21.799-2.428c-1.406,1.029-2.812,2.31-4.196,3.879
		c-0.638,0.725-1.271,1.504-1.896,2.353C57.818,74.892,47.253,89.683,56.127,107.009z"/>
	<g>
		<path fill="#ECE5CE" d="M53.842,104.791c8.029,15.677,29.084,22.481,48.1,14.029c3.277-1.457,6.363-3.274,9.094-5.393
			c1.725-1.34,3.305-2.801,4.703-4.366c5.834-6.534,8.452-14.91,4.797-24.049c-3.031-7.577-13.1-12.677-20.209-10.226
			c-10.709,3.692-14.443,0.93-16.903-5.916c-1.491-4.146-11.622-9.877-21.798-2.429c-1.406,1.029-2.813,2.31-4.197,3.88
			c-0.637,0.724-1.27,1.502-1.896,2.353C55.532,72.675,44.968,87.466,53.842,104.791z M56.726,93.888
			c0-2.801,2.271-5.071,5.071-5.071s5.07,2.271,5.07,5.071s-2.27,5.071-5.07,5.071S56.726,96.688,56.726,93.888z M96.025,111.636
			c0,2.8-2.27,5.071-5.071,5.071c-2.801,0-5.071-2.271-5.071-5.071s2.271-5.072,5.071-5.072
			C93.756,106.563,96.025,108.836,96.025,111.636z M76.587,108.679c0,2.8-2.271,5.07-5.071,5.07s-5.071-2.271-5.071-5.07
			c0-2.801,2.271-5.072,5.071-5.072S76.587,105.878,76.587,108.679z M115.464,92.621c0,5.6-4.541,10.141-10.142,10.141
			c-5.602,0-10.143-4.541-10.143-10.141c0-5.602,4.541-10.143,10.143-10.143C110.923,82.479,115.464,87.02,115.464,92.621z
			 M72.783,76.563c0,2.799-2.27,5.071-5.07,5.071s-5.071-2.272-5.071-5.071c0-2.801,2.271-5.071,5.071-5.071
			S72.783,73.762,72.783,76.563z"/>
		<circle fill="#F26B6C" cx="67.712" cy="76.563" r="5.071"/>
		<circle fill="#C8DC66" cx="61.796" cy="93.888" r="5.071"/>
		<circle fill="#C64D57" cx="71.516" cy="108.679" r="5.071"/>
		<circle fill="#A2D5AA" cx="90.954" cy="111.636" r="5.071"/>
		<circle fill="#557981" cx="105.322" cy="92.621" r="10.142"/>
		<path fill="#F89C43" d="M119.546,64.757c-0.02-0.012-0.04-0.025-0.06-0.038C119.506,64.731,119.525,64.745,119.546,64.757
			L119.546,64.757z"/>
		<path fill="#F89C43" d="M116.992,69.143L116.992,69.143c-0.023-0.012-0.047-0.023-0.07-0.035
			C116.945,69.119,116.969,69.133,116.992,69.143z"/>
		<g>
			<path fill="#BABBB8" d="M89.926,78.05c-0.161-0.213-0.065-0.608,0.252-1.155c-2.058,0.25-3.188,0.079-6.43,1.793
				c-2.334,1.233-3.527,3.462-4.865,5.633h-0.009c0.948,0.011,2.519-0.3,3.372-0.702c-0.113,0.095-1.514,0.541-4.873,4.078
				c-0.178,0.273-0.18,0.339-0.025,0.323c3.404-0.346,6.635-0.407,9.504-2.508c1.333-0.978,2.373-2.315,3.162-3.757
				c0.569-1.038,1.176-2.407,1.308-3.694C90.588,78.279,90.105,78.286,89.926,78.05z"/>
			<path fill="#BABBB8" d="M99.195,67.831l3.082,4.073c2.646-1.773,5.557-3.846,8.567-6.127
				c10.607-8.027,18.438-15.548,17.493-16.801c-0.948-1.25-10.314,4.244-20.92,12.272C104.405,63.528,101.621,65.765,99.195,67.831z
				"/>
			<path fill="#BABBB8" d="M99.195,67.83c-0.059,0.049-0.115,0.097-0.172,0.146c-0.021,0.017-0.041,0.033-0.059,0.05
				c-4.549,3.889-7.787,7.141-8.787,8.868c-0.317,0.547-0.413,0.942-0.252,1.155c0.18,0.236,0.662,0.229,1.396,0.011
				c2.007-0.596,5.907-2.785,10.705-5.987c0.021-0.013,0.04-0.027,0.06-0.04c0.064-0.043,0.129-0.084,0.193-0.129h-0.002
				L99.195,67.83L99.195,67.83z"/>
		</g>
		<g>
			<path fill="#4A494A" d="M89.728,75.627c-0.161-0.213-0.065-0.607,0.251-1.153c-2.057,0.249-3.188,0.078-6.43,1.792
				c-2.334,1.233-3.526,3.461-4.865,5.632h-0.008c0.948,0.012,2.518-0.299,3.371-0.702c-0.111,0.095-1.514,0.542-4.871,4.079
				c-0.178,0.272-0.181,0.339-0.025,0.324c3.402-0.347,6.634-0.408,9.502-2.51c1.334-0.977,2.373-2.315,3.164-3.756
				c0.568-1.038,1.176-2.408,1.307-3.694C90.391,75.857,89.906,75.864,89.728,75.627z"/>
			<path fill="#FACDAE" d="M98.997,65.407l3.083,4.075c2.646-1.775,5.556-3.846,8.566-6.127c10.607-8.027,18.438-15.548,17.492-16.8
				c-0.947-1.251-10.313,4.243-20.92,12.271C104.207,61.106,101.423,63.343,98.997,65.407z"/>
			<path fill="#FFFFFF" d="M98.996,65.407c-0.058,0.05-0.114,0.098-0.17,0.147c-0.021,0.017-0.041,0.034-0.061,0.05
				c-4.548,3.888-7.787,7.141-8.787,8.869c-0.316,0.546-0.412,0.94-0.251,1.153c0.179,0.237,0.663,0.23,1.396,0.012
				c2.008-0.597,5.906-2.787,10.705-5.987c0.02-0.014,0.04-0.027,0.061-0.04c0.064-0.043,0.127-0.086,0.191-0.129l0,0L98.996,65.407
				L98.996,65.407z"/>
		</g>
	</g>
</g>
</svg>
