<?xml version="1.0" encoding="utf-8"?>
<!-- Generator: Adobe Illustrator 16.0.0, SVG Export Plug-In . SVG Version: 6.00 Build 0)  -->
<!DOCTYPE svg PUBLIC "-//W3C//DTD SVG 1.1//EN" "http://www.w3.org/Graphics/SVG/1.1/DTD/svg11.dtd">
<svg version="1.1" id="Layer_1" xmlns="http://www.w3.org/2000/svg" xmlns:xlink="http://www.w3.org/1999/xlink" x="0px" y="0px"
	 width="196px" height="131px" viewBox="0 0 196 131" enable-background="new 0 0 196 131" xml:space="preserve">
<g>
	<rect x="109.931" y="31.867" fill="#424142" width="17" height="17"/>
	<rect x="92.931" y="48.868" fill="#424142" width="17" height="17"/>
	<rect x="75.931" y="31.867" fill="#424142" width="17" height="17"/>
	<rect x="109.931" y="65.868" fill="#424142" width="17" height="17"/>
</g>
<g>
	<rect x="109.266" y="31" fill="#566270" width="17" height="17"/>
	<rect x="92.266" y="48" fill="#C8DC66" width="17" height="17"/>
	<rect x="75.266" y="31" fill="#566270" width="17" height="17"/>
	<rect x="109.266" y="65" fill="#566270" width="17" height="16.999"/>
</g>
<g opacity="0.3">
	<path fill="#424142" d="M83.362,70.094c0.254,0.344,0.093,0.975-0.424,1.844c3.299-0.363,5.107-0.07,10.327-2.758
		c3.758-1.936,5.706-5.482,7.889-8.936l0.013-0.002c-1.519-0.033-4.035,0.438-5.411,1.066c0.183-0.148,2.433-0.84,7.873-6.445
		c0.288-0.434,0.294-0.539,0.046-0.518c-5.457,0.494-10.631,0.537-15.26,3.852c-2.153,1.543-3.842,3.668-5.133,5.961
		c-0.927,1.652-1.923,3.836-2.156,5.893C82.304,69.715,83.078,69.711,83.362,70.094z"/>
	<path fill="#424142" d="M68.341,86.297l-4.865-6.575c-4.27,2.795-8.964,6.063-13.824,9.663c-17.125,12.67-29.795,24.58-28.303,26.6
		c1.496,2.02,16.589-6.617,33.712-19.287C59.923,93.098,64.421,89.564,68.341,86.297z"/>
	<path fill="#424142" d="M68.343,86.301c0.094-0.078,0.185-0.154,0.275-0.232c0.033-0.027,0.066-0.053,0.096-0.08
		c7.35-6.147,12.594-11.302,14.225-14.05c0.517-0.869,0.678-1.5,0.424-1.844c-0.284-0.383-1.059-0.379-2.236-0.043
		c-3.224,0.92-9.507,4.359-17.245,9.405c-0.032,0.02-0.065,0.041-0.097,0.063c-0.104,0.066-0.207,0.133-0.311,0.201l0.002,0.002
		l4.865,6.575L68.343,86.301z"/>
</g>
<g>
	<path fill="#8EB03E" d="M83.028,69.344c0.244,0.352,0.064,0.977-0.478,1.83c3.308-0.266,5.107,0.082,10.405-2.449
		c3.814-1.824,5.867-5.311,8.15-8.697h0.014c-1.518-0.078-4.048,0.316-5.441,0.904c0.187-0.143,2.457-0.768,8.062-6.209
		c0.302-0.426,0.31-0.531,0.062-0.516c-5.469,0.332-10.643,0.221-15.369,3.395c-2.197,1.479-3.947,3.553-5.307,5.807
		c-0.976,1.625-2.037,3.777-2.33,5.826C81.983,68.932,82.757,68.954,83.028,69.344z"/>
	<path fill="#48494C" d="M67.531,85.094l-4.667-6.72c-4.35,2.669-9.141,5.794-14.106,9.248
		c-17.494,12.154-30.514,23.682-29.081,25.744c1.436,2.063,16.777-6.119,34.271-18.275C58.915,91.639,63.516,88.24,67.531,85.094z"
		/>
	<path opacity="0.8" fill="#48494C" d="M67.532,85.094c0.096-0.074,0.19-0.148,0.283-0.223c0.033-0.025,0.067-0.051,0.1-0.078
		c7.529-5.924,12.923-10.921,14.636-13.619c0.542-0.854,0.722-1.479,0.478-1.83c-0.271-0.391-1.045-0.412-2.232-0.109
		c-3.25,0.822-9.633,4.074-17.518,8.885c-0.033,0.02-0.066,0.041-0.1,0.061c-0.105,0.064-0.21,0.127-0.316,0.193h0.002
		L67.532,85.094L67.532,85.094z"/>
</g>
<g>
	<rect x="127.098" y="82.867" fill="#424142" width="17" height="17"/>
</g>
<g>
	<rect x="126.434" y="82" fill="#566270" width="17" height="17"/>
</g>
<g>
	<rect x="161.431" y="48.868" fill="#424142" width="17" height="17"/>
	<rect x="144.431" y="65.868" fill="#424142" width="17" height="17"/>
</g>
<g>
	<rect x="160.563" y="47.968" fill="#C8DC66" width="17" height="17"/>
	<rect x="143.563" y="64.968" fill="#566270" width="17" height="17"/>
</g>
<g>
	<rect x="144.098" y="99.867" fill="#424142" width="17" height="17"/>
	<rect x="110.098" y="99.867" fill="#424142" width="17" height="17"/>
</g>
<g>
	<rect x="143.434" y="99" fill="#566270" width="17" height="17"/>
	<rect x="109.434" y="99" fill="#566270" width="17" height="17"/>
</g>
</svg>
